# xmcd
#
# Track frame offsets: 
#        150
#        12087
#        33232
#        50990
#        78157
#        92062
#        106065
#        123415
#        139542
#
# Disc length: 2027 seconds
#
# Revision: 1
# Processed by: cddbd v1.5.2PL0 Copyright (c) Steve Scherf et al.
# Submitted via: ExactAudioCopy v0.99pb4
#
DISCID=6707e909
DTITLE=Phil Upchurch - Upchurch and Tennyson
DYEAR=1974
DGENRE=Jazz
TTITLE0=You Got Style
TTITLE1=Ave Maria
TTITLE2=In Common
TTITLE3=Tell Me Something Good
TTITLE4=Don't I Know You?
TTITLE5=South Side Morning
TTITLE6=Evil
TTITLE7=Black Gold
TTITLE8=I Wanted It Too
EXTD=YEAR: 1974
EXTT0=
EXTT1=
EXTT2=
EXTT3=
EXTT4=
EXTT5=
EXTT6=
EXTT7=
EXTT8=
PLAYORDER=
